<?xml version="1.0" encoding="utf-8"?>
<!-- Generator: Adobe Illustrator 16.0.0, SVG Export Plug-In . SVG Version: 6.00 Build 0)  -->
<!DOCTYPE svg PUBLIC "-//W3C//DTD SVG 1.1//EN" "http://www.w3.org/Graphics/SVG/1.1/DTD/svg11.dtd">
<svg version="1.1"
	 id="svg162" xmlns:cc="http://creativecommons.org/ns#" xmlns:dc="http://purl.org/dc/elements/1.1/" xmlns:svg="http://www.w3.org/2000/svg" xmlns:rdf="http://www.w3.org/1999/02/22-rdf-syntax-ns#"
	 xmlns="http://www.w3.org/2000/svg" xmlns:xlink="http://www.w3.org/1999/xlink" x="0px" y="0px" width="278px" height="40px"
	 viewBox="0 0 278 40" enable-background="new 0 0 278 40" xml:space="preserve">
<g>
	<g>
		<g>
			<g>
				<path fill="#2285B8" d="M20.736,34.073c-4.035,0-7.327-1.28-9.878-3.841c-2.487-2.516-3.731-5.664-3.731-9.448
					c0-3.799,1.244-6.958,3.731-9.471c2.563-2.56,5.857-3.841,9.878-3.841c5.053,0,8.868,2.383,11.446,7.151L27.926,16.7
					c-1.686-3.098-4.083-4.649-7.189-4.649c-2.671,0-4.816,0.838-6.438,2.518c-1.574,1.616-2.358,3.69-2.358,6.215
					c0,2.511,0.784,4.577,2.358,6.192c1.623,1.68,3.767,2.52,6.438,2.52c3.106,0,5.503-1.557,7.189-4.67l4.257,2.076
					C29.604,31.686,25.789,34.073,20.736,34.073z"/>
				<path fill="#2285B8" d="M69.848,34.078V11.189c0-0.855,0.275-1.622,0.83-2.296c0.566-0.674,1.291-1.115,2.164-1.322
					c0.905-0.197,1.775-0.113,2.615,0.255c0.927,0.405,1.558,1.059,1.892,1.969l6.572,17.958l6.555-17.958
					c0.335-0.91,0.974-1.564,1.917-1.969c0.823-0.369,1.685-0.452,2.589-0.255c0.878,0.207,1.599,0.648,2.167,1.322
					c0.55,0.674,0.829,1.441,0.829,2.296v22.889h-4.773V16.281l-5.607,15.35c-0.271,0.735-0.75,1.326-1.432,1.767
					c-0.667,0.454-1.417,0.681-2.244,0.681c-0.809,0-1.558-0.227-2.242-0.681c-0.671-0.44-1.138-1.031-1.409-1.767l-5.627-15.35
					v17.797H69.848z"/>
				<path fill="#2285B8" d="M103.409,11.189c0-1.015,0.381-1.893,1.143-2.626c0.773-0.724,1.697-1.087,2.766-1.087h6.807
					c2.113,0,3.916,0.712,5.411,2.134c1.496,1.422,2.243,3.142,2.243,5.167c0,2.292-0.979,3.938-2.938,4.945
					c2.668,1.154,4.001,3.175,4.001,6.065c0,2.278-0.852,4.234-2.551,5.863c-1.702,1.619-3.761,2.429-6.167,2.429h-10.715V11.189z
					 M114.124,17.644c0.773,0,1.439-0.295,2.011-0.884c0.554-0.56,0.831-1.223,0.831-1.983c0-0.748-0.277-1.393-0.831-1.933
					c-0.557-0.527-1.228-0.788-2.011-0.788h-5.901v5.588H114.124z M114.124,29.5c1.067,0,1.989-0.361,2.763-1.086
					c0.759-0.732,1.141-1.611,1.141-2.628c0-1.04-0.382-1.947-1.141-2.72c-0.774-0.771-1.695-1.16-2.763-1.16h-5.901V29.5H114.124z"
					/>
				<path fill="#2285B8" d="M150.044,11.375c2.735,2.586,4.099,5.723,4.099,9.414c0,3.662-1.363,6.793-4.099,9.391
					c-2.732,2.598-6.024,3.898-9.879,3.898c-3.855,0-7.146-1.301-9.88-3.898c-2.732-2.598-4.097-5.729-4.097-9.391
					c0-3.691,1.365-6.827,4.097-9.414c2.734-2.599,6.025-3.899,9.88-3.899C144.02,7.476,147.312,8.777,150.044,11.375z
					 M140.165,12.056c-2.526,0-4.686,0.851-6.477,2.554c-1.792,1.703-2.687,3.762-2.687,6.179c0,2.4,0.895,4.454,2.687,6.158
					c1.791,1.702,3.951,2.553,6.477,2.553c2.522,0,4.684-0.851,6.477-2.553c1.794-1.704,2.688-3.758,2.688-6.158
					c0-2.417-0.894-4.477-2.688-6.179C144.849,12.907,142.688,12.056,140.165,12.056z"/>
				<path fill="#2285B8" d="M161.817,7.476l5.315,19.141l3.56-16.233c0.192-0.873,0.658-1.575,1.393-2.117
					c0.709-0.514,1.513-0.77,2.417-0.77c0.89,0,1.688,0.256,2.398,0.77c0.748,0.542,1.211,1.244,1.391,2.117l3.556,16.214
					l5.3-19.122h4.95l-6.595,23.897c-0.216,0.811-0.689,1.465-1.409,1.972c-0.696,0.489-1.477,0.733-2.341,0.733
					c-0.878,0-1.663-0.244-2.356-0.733c-0.761-0.528-1.238-1.228-1.431-2.101l-3.463-15.825l-3.481,15.825
					c-0.191,0.873-0.67,1.572-1.43,2.101c-0.696,0.489-1.483,0.733-2.358,0.733c-0.864,0-1.639-0.244-2.32-0.733
					c-0.721-0.507-1.197-1.161-1.432-1.972l-6.63-23.897H161.817z"/>
				<path fill="#2285B8" d="M198.958,27.426l-2.514,6.652h-5.102l9.084-24.117c0.286-0.773,0.78-1.387,1.488-1.842
					c0.673-0.428,1.43-0.643,2.267-0.643c0.82,0,1.576,0.215,2.259,0.643c0.709,0.455,1.208,1.069,1.491,1.842l9.087,24.117h-5.106
					l-2.511-6.652H198.958z M207.837,23.268l-3.655-9.704l-3.655,9.704H207.837z"/>
				<path fill="#2285B8" d="M231.342,7.476c2.452,0,4.551,0.749,6.301,2.246c1.846,1.555,2.77,3.456,2.77,5.698
					c0,1.321-0.328,2.536-0.987,3.64c-0.747,1.297-1.816,2.175-3.209,2.628c1.511,0.748,2.667,2.291,3.479,4.631
					c0.645,1.8,0.963,3.619,0.963,5.441v2.318h-4.813v-2.463c0-2.488-0.636-4.58-1.909-6.271c-1.099-1.457-2.342-2.186-3.736-2.186
					h-5.08v10.92h-4.814V11.189c0-1.015,0.384-1.893,1.157-2.626c0.76-0.724,1.677-1.087,2.744-1.087H231.342z M231.342,12.056
					h-6.222v6.836h6.222c1.251,0,2.298-0.355,3.132-1.064c0.747-0.64,1.124-1.441,1.124-2.409c0-0.896-0.382-1.663-1.144-2.3
					C233.62,12.413,232.581,12.056,231.342,12.056z"/>
				<path fill="#2285B8" d="M261.914,34.078h-16.377V11.189c0-1.015,0.384-1.893,1.161-2.626c0.756-0.724,1.671-1.087,2.739-1.087
					h12.477v4.58h-11.565v6.433h8.469v4.578h-8.469V29.5h11.565V34.078z"/>
			</g>
			<path fill="#2285B8" d="M65.554,19.098l-3.246,1.976v-3.201l0-0.001c-0.001-0.017-0.003-0.033-0.005-0.051v-0.003
				c-0.003-0.015-0.008-0.029-0.012-0.045l-0.002-0.002c-0.005-0.017-0.01-0.031-0.018-0.045l-0.001-0.001
				c-0.007-0.015-0.014-0.029-0.023-0.043l0.005,0.009l0.006,0.011l0.265-0.151l2.52-1.438c-0.135-0.48-0.295-0.95-0.477-1.409
				l-1.996-1.129l-0.002,0.001c-0.053-0.032-0.116-0.049-0.183-0.049c-0.068,0-0.133,0.019-0.188,0.052l0,0l-1.749,1.012v2.024
				l-0.001,1.193v2.469v0.169V22.2l-0.004,0.003l-2.338,1.434l-1.345,0.824v-0.013l0,0.002l0-9.082v-0.683
				c0-0.018,0-0.035-0.003-0.052c-0.002-0.017-0.006-0.034-0.011-0.051v-0.001c-0.006-0.015-0.011-0.031-0.018-0.047h-0.001
				c-0.006-0.016-0.014-0.03-0.023-0.044c-0.009-0.015-0.019-0.029-0.028-0.041l0.005,0.006l0.011,0.015l0.007,0.009l0.004,0.008
				l0.001,0.003l0.003,0.002l0.003,0.005l0.181-0.105l3.505-2.018l-0.01-0.019l-0.014-0.018l-0.01-0.014l-0.014-0.016l-0.018-0.018
				l-0.021-0.019l-0.024-0.017l-0.03-0.02l-3.232-1.894c-0.058-0.041-0.131-0.063-0.208-0.063c-0.076,0-0.146,0.023-0.204,0.061
				l-1.779,1.053v1.989v12.263l-3.666,2.247l-0.125-0.082v-0.004l-0.003-0.002v-13.53v-2.871c-0.001-0.018-0.003-0.033-0.006-0.05
				l0-0.003c-0.003-0.015-0.006-0.03-0.011-0.044l-0.002-0.003c-0.005-0.014-0.009-0.029-0.016-0.042L51,11.254
				c-0.006-0.013-0.014-0.026-0.022-0.039l0.001,0.001l0.012,0.018l3.791-2.211l-0.01-0.016l-0.018-0.025l-0.017-0.021l-0.014-0.014
				l-0.016-0.016l-0.018-0.014l-0.02-0.015l-0.028-0.018l-3.355-1.96c-0.006-0.005-0.013-0.01-0.02-0.013l-0.018-0.01h-0.001
				c-0.047-0.021-0.099-0.033-0.154-0.033c-0.059,0-0.115,0.015-0.165,0.039l-0.001,0l-0.01,0.006c-0.001,0-0.003,0.001-0.005,0.003
				l-3.424,1.997l-0.017,0.012L47.454,8.94l-0.017,0.015l-0.017,0.018l-0.013,0.016l-0.015,0.018l-0.009,0.014l-0.012,0.018
				l-0.007,0.013l-0.007,0.016l-0.007,0.014l-0.007,0.018L47.338,9.12l-0.005,0.023l-0.006,0.032L47.324,9.2v1.911l-1.617-0.936
				h-0.002c-0.055-0.033-0.12-0.052-0.189-0.052c-0.07,0-0.137,0.02-0.192,0.054l-0.002,0l-3.38,2.035l-0.026,0.019l-0.021,0.018
				l-0.014,0.013l-0.011,0.012l-0.01,0.012l-0.009,0.011l-0.01,0.012l-0.016,0.022l-0.006,0.012l-0.011,0.021l-0.01,0.021
				l-0.006,0.016l-0.004,0.014l-0.006,0.022l-0.006,0.031l-0.003,0.026l-0.001,0.038v2.052l-1.833-1.068l-0.001,0.002
				c-0.056-0.033-0.119-0.051-0.188-0.051c-0.078,0-0.15,0.024-0.21,0.065l-1.949,1.165c-0.2,0.503-0.372,1.022-0.516,1.552
				c-0.25,0.92-0.413,1.877-0.476,2.862c-0.021,0.314-0.032,0.631-0.032,0.95c0,4.942,2.472,9.305,6.245,11.926l1.453,0.887
				c2.031,1.083,4.351,1.697,6.813,1.697c8.014,0,14.51-6.496,14.51-14.51C65.587,19.735,65.576,19.417,65.554,19.098z
				 M50.922,11.147l0.017,0.018l0.008,0.008c-0.01-0.01-0.019-0.021-0.03-0.03L50.922,11.147z M50.879,11.112l0.022,0.018
				l0.01,0.008c-0.021-0.017-0.044-0.034-0.069-0.047L50.879,11.112z M49.192,12.242l-0.013-0.019l0.002,0.002L49.192,12.242z
				 M49.173,12.215l-0.005-0.006l0.001,0L49.173,12.215z M49.117,12.156l-0.012-0.011l0.006,0.004L49.117,12.156z M45.382,14.463
				l0.007,0.011l0.008,0.013c-0.007-0.012-0.016-0.022-0.024-0.032l0.002,0L45.382,14.463z M45.365,14.443l0.005,0.006l0.002,0.003
				c-0.005-0.007-0.011-0.013-0.017-0.019l0.002,0.002L45.365,14.443z M45.312,14.391l0.008,0.008l0.008,0.008
				c-0.007-0.006-0.014-0.012-0.021-0.018L45.312,14.391z M45.292,14.377l0.009,0.006c-0.008-0.005-0.016-0.011-0.024-0.016
				L45.292,14.377z M43.378,15.548l0.003,0.003l0.001,0.002L43.378,15.548z M43.411,15.596l-0.01-0.016l0.006,0.009L43.411,15.596z
				 M43.328,15.497l-0.005-0.003l0.003,0.002L43.328,15.497z M43.282,15.461l0.016,0.012l-0.004-0.002l-0.021-0.014l-1.256-0.732
				L43.282,15.461z M39.611,17.779l0.016,0.023l0.003,0.004c-0.006-0.013-0.015-0.024-0.024-0.036L39.611,17.779z M39.578,17.74
				l0.016,0.017l0.006,0.008c-0.009-0.011-0.019-0.021-0.028-0.029L39.578,17.74z M39.536,17.705l0.024,0.02l0.007,0.007
				c-0.011-0.011-0.022-0.021-0.035-0.029L39.536,17.705z M39.521,17.695l0.008,0.005c-0.009-0.008-0.021-0.014-0.032-0.021
				L39.521,17.695z M39.908,21.104l-0.221-0.134v-2.958c0-0.002,0-0.004,0-0.006v-0.004c0-0.015-0.002-0.03-0.004-0.046
				l-0.001-0.007c-0.001-0.015-0.005-0.029-0.009-0.043l-0.003-0.009c-0.003-0.015-0.009-0.029-0.015-0.041l-0.002-0.005
				c-0.006-0.013-0.013-0.026-0.021-0.038l0.006,0.008l0.233-0.137l3.539-2.087h0l0.002,0.006l0.005,0.009v0.001h0.001l0.004,0.01
				l0.003,0.008l0.004,0.008l0.001,0.005v0.001v0.001l0.002,0.004l0.003,0.006l0,0.003l0.002,0.006h0v0.003l0.002,0.003v0.002
				l0.003,0.009v0.002l0,0.001l0.001,0.003v0.003v0.002h0.001v0.001v0.001l0.002,0.004v0.003v0.002l0.001,0.002l0.002,0.012l0,0
				v0.004l0.001,0.013l0.002,0.006v0l0.001,0.012v0.024v3.597v0.118v3.75L39.908,21.104z M49.242,26.729l-2.217-1.337l-1.57-0.945
				v-0.002v-2.145v-0.002v-0.217v-3.848v-0.216v-3.344h-0.001c0-0.017-0.002-0.032-0.005-0.049c0-0.016-0.006-0.032-0.009-0.046
				l-0.002-0.001c-0.004-0.016-0.009-0.03-0.015-0.043v-0.001c-0.005-0.01-0.01-0.019-0.014-0.028l-0.004-0.003l0-0.001
				c-0.001-0.002-0.002-0.006-0.003-0.008l0.003,0.007l0.364-0.214l3.438-2.017l0.008,0.018l0.001,0.002l0.002,0.006l0.007,0.016
				l0.005,0.016l0.002,0.009v0h0.001l0.001,0.002l0.002,0.013l0.003,0.014l0.003,0.021v0.003v0.003l0.001,0.013l0.001,0.024v14.293
				l-0.005-0.004V26.729z M56.593,14.376l0.009,0.007l0.009,0.006l0.005,0.004l0.004,0.004l0.007,0.005l0.006,0.006l0.005,0.004l0,0
				l0.005,0.004l0.006,0.006l0.007,0.008l0.007,0.006l0.007,0.008l0.001,0.003c-0.012-0.014-0.022-0.025-0.034-0.036
				c-0.022-0.021-0.047-0.037-0.073-0.052L56.593,14.376z M62.218,17.644l0.01,0.011l0.007,0.01l0.004,0.005
				c-0.007-0.01-0.014-0.02-0.022-0.028L62.218,17.644z M62.187,17.611l0.011,0.011l0.009,0.01
				c-0.008-0.008-0.015-0.017-0.024-0.024L62.187,17.611z M62.15,17.582l0.018,0.014l0.008,0.006l0.004,0.003
				c-0.011-0.009-0.023-0.018-0.035-0.026L62.15,17.582z"/>
		</g>
		<g>
			<polygon fill="#E4D93E" points="49.246,15.896 49.247,12.437 49.246,12.406 49.244,12.393 49.244,12.39 49.241,12.366 
				49.234,12.337 49.233,12.337 49.233,12.336 49.226,12.311 49.217,12.289 49.215,12.287 49.207,12.269 45.77,14.286 			"/>
			<polygon fill="#E9C62A" points="49.246,16.065 49.246,15.896 45.77,14.286 45.405,14.5 45.405,14.5 45.404,14.501 45.408,14.504 
				45.41,14.506 45.414,14.516 45.42,14.53 45.422,14.533 45.422,14.534 45.427,14.543 45.432,14.557 45.437,14.569 45.438,14.577 
				45.439,14.578 45.439,14.582 45.443,14.597 45.448,14.611 45.448,14.624 45.448,14.625 45.448,14.625 45.45,14.633 
				45.452,14.642 45.454,14.657 45.455,14.671 45.455,14.673 45.455,18.018 			"/>
			<polygon fill="#E9B529" points="49.245,19.988 49.246,16.065 45.455,18.018 45.455,18.234 			"/>
			<polygon fill="#D9811B" points="49.245,20.156 49.245,19.988 45.455,18.234 45.455,22.082 			"/>
			<polygon fill="#D44F15" points="49.245,20.156 45.455,22.082 45.455,22.299 45.455,22.299 49.244,24.094 			"/>
			<polygon fill="#B62822" points="47.025,25.393 49.242,26.729 49.242,26.719 49.244,24.267 			"/>
			<polygon fill="#DA3F1C" points="49.244,24.267 49.244,24.094 45.455,22.301 45.455,22.301 45.455,24.445 45.455,24.447 
				47.025,25.393 			"/>
			<polygon fill="#002A22" points="54.832,25.58 51.042,27.461 51.042,27.805 51.042,27.809 51.166,27.891 54.832,25.644 			"/>
			<polygon fill="#0A5048" points="51.041,23.559 51.042,27.461 54.832,25.58 54.832,25.336 			"/>
			<polygon fill="#1C7239" points="51.041,23.335 51.041,23.559 54.832,25.336 54.832,21.357 54.782,21.383 			"/>
			<polygon fill="#37A97C" points="51.039,19.392 51.041,23.335 54.782,21.383 54.832,21.357 54.832,21.112 			"/>
			<polygon fill="#34A239" points="51.039,19.15 51.039,19.392 54.832,21.112 54.832,17.198 			"/>
			<polygon fill="#51A736" points="51.039,19.15 54.832,17.198 54.832,16.953 51.038,15.258 51.038,15.258 			"/>
			<polygon fill="#85A22A" points="51.038,15.069 51.038,15.258 51.038,15.258 54.831,16.952 54.832,16.642 54.832,13.135 			"/>
			<polygon fill="#B8CC34" points="54.832,13.135 54.832,12.887 54.822,12.883 54.822,12.893 51.014,11.287 51.019,11.299 
				51.019,11.302 51.021,11.305 51.025,11.322 51.029,11.339 51.032,11.349 51.032,11.353 51.033,11.359 51.037,11.382 
				51.038,11.402 51.038,14.273 51.038,15.069 			"/>
			<polygon fill="#D7DC57" points="50.991,11.235 50.999,11.251 51,11.254 51.003,11.26 51.01,11.275 51.014,11.287 54.822,12.893 
				54.822,12.883 54.814,9.099 54.813,9.095 54.805,9.072 54.799,9.057 54.79,9.038 54.782,9.023 50.991,11.235 			"/>
			<polygon fill="#E2818D" points="60.446,16.049 60.446,12.539 60.443,12.514 60.439,12.488 60.435,12.466 60.428,12.443 
				60.42,12.424 60.412,12.405 60.406,12.391 60.396,12.375 56.891,14.393 			"/>
			<polygon fill="#D8425E" points="56.709,14.498 56.712,14.506 56.717,14.514 56.722,14.521 56.725,14.531 56.726,14.534 
				56.728,14.534 56.729,14.54 56.733,14.548 56.738,14.558 56.74,14.569 56.744,14.577 56.745,14.581 56.745,14.582 56.745,14.585 
				56.748,14.594 56.75,14.605 56.754,14.616 56.754,14.627 56.756,14.633 56.756,14.633 56.756,14.638 56.758,14.649 
				56.759,14.677 56.759,14.685 56.759,15.368 56.759,18.35 60.446,16.22 60.446,16.049 56.891,14.393 			"/>
			<polygon fill="#A12471" points="60.446,20.446 60.446,20.277 56.759,18.664 56.759,22.674 			"/>
			<polygon fill="#D42A6C" points="56.759,18.664 60.446,20.277 60.446,17.808 60.446,16.22 56.759,18.35 			"/>
			<polygon fill="#712780" points="60.446,20.446 56.759,22.674 56.759,23.004 58.104,23.637 60.442,22.203 60.446,22.2 			"/>
			<polygon fill="#312862" points="56.759,23.004 56.759,24.448 56.759,24.461 58.104,23.637 			"/>
			<polygon fill="#D62524" points="41.762,20.264 43.46,19.495 43.46,19.377 39.872,17.684 39.639,17.82 39.647,17.835 
				39.653,17.85 39.655,17.855 39.658,17.858 39.667,17.882 39.67,17.896 39.673,17.905 39.676,17.913 39.682,17.945 39.682,17.948 
				39.683,17.955 39.685,17.971 39.687,17.989 39.687,18.001 39.687,18.005 39.687,18.011 39.687,20.97 39.908,21.104 			"/>
			<polygon fill="#DB504D" points="43.46,15.78 43.46,15.756 43.458,15.744 43.458,15.744 43.458,15.743 43.457,15.737 
				43.455,15.724 43.455,15.721 43.452,15.704 43.452,15.704 43.452,15.701 43.449,15.695 43.449,15.692 43.449,15.689 
				43.447,15.686 43.447,15.684 43.444,15.674 43.444,15.672 43.442,15.669 43.442,15.666 43.442,15.666 43.439,15.657 
				43.439,15.657 43.437,15.65 43.434,15.646 43.434,15.644 43.433,15.639 43.428,15.63 43.425,15.623 43.42,15.613 43.419,15.613 
				43.419,15.612 43.414,15.603 43.412,15.597 43.411,15.597 43.411,15.597 39.872,17.684 43.46,19.377 			"/>
			<polygon fill="#8B1D22" points="43.46,19.495 41.762,20.264 39.908,21.104 43.46,23.244 			"/>
			<path fill="#5C4D94" d="M65.546,18.957c-0.073-0.977-0.245-1.93-0.502-2.845l-2.52,1.438L65.546,18.957z"/>
			<path fill="#221938" d="M62.259,17.701l0.003,0.006l0.005,0.01l0.003,0.007l0.001,0.001l0.003,0.005l0.004,0.011l0.003,0.008
				l0.006,0.014l0.001,0.006l0.002,0.002l0.002,0.006l0.003,0.012l0.002,0.015l0.002,0.009l0.001,0.004v0.003v0.004l0.002,0.012
				l0.001,0.014l0.003,0.021l0,0v3.201l3.246-1.976c-0.003-0.047-0.004-0.095-0.008-0.142l-3.022-1.407L62.259,17.701z"/>
		</g>
	</g>
	<g>
		<g>
			<path fill="#2070A6" d="M269.245,13.19l-1.055-1.876h-0.754v1.876h-0.733V8.542h1.525c0.959,0,1.679,0.339,1.679,1.343
				c0,0.722-0.385,1.15-0.972,1.333l1.136,1.972H269.245z M267.437,10.725h0.703c0.676,0,1.041-0.274,1.041-0.839
				c0-0.562-0.365-0.758-1.041-0.758h-0.703V10.725z"/>
		</g>
		<path fill="#2070A6" d="M268.288,7.478c-1.871,0-3.387,1.516-3.387,3.386c0,1.873,1.516,3.391,3.387,3.391
			s3.388-1.518,3.388-3.391C271.676,8.994,270.159,7.478,268.288,7.478z M268.288,13.779c-1.612,0-2.917-1.302-2.917-2.916
			c0-1.608,1.305-2.915,2.917-2.915c1.61,0,2.916,1.306,2.916,2.915C271.204,12.477,269.898,13.779,268.288,13.779z"/>
	</g>
</g>
</svg>
